<svg xmlns="http://www.w3.org/2000/svg" version="1.1" xmlns:xlink="http://www.w3.org/1999/xlink" xmlns:svgjs="http://svgjs.dev/svgjs" width="1500" height="200" viewBox="0 0 1500 200"><g transform="matrix(1,0,0,1,-0.9090909090909918,5.241870053299323)"><svg viewBox="0 0 396 53" data-background-color="#fee869" preserveAspectRatio="xMidYMid meet" height="200" width="1500" xmlns="http://www.w3.org/2000/svg" xmlns:xlink="http://www.w3.org/1999/xlink"><g id="tight-bounds" transform="matrix(1,0,0,1,0.2400000000000091,0.00877658640999357)"><svg viewBox="0 0 395.52 52.982446827180034" height="52.982446827180034" width="395.52"><g><svg viewBox="0 0 430.6004601564808 57.68169999999999" height="52.982446827180034" width="395.52"><g><svg viewBox="0 0 430.6004601564808 57.68169999999999" height="57.68169999999999" width="430.6004601564808"><g id="textblocktransform"><svg viewBox="0 0 430.6004601564808 57.68169999999999" height="57.68169999999999" width="430.6004601564808" id="textblock"><g><svg viewBox="0 0 430.6004601564808 57.68169999999999" height="57.68169999999999" width="430.6004601564808"><g><svg><g></g><g></g></svg></g><g><svg><g><svg></svg></g><g></g></svg></g><g id="text-0"><svg viewBox="0 0 430.6004601564808 57.68169999999999" height="57.68169999999999" width="430.6004601564808"><g transform="matrix(1,0,0,1,0,0)"><svg width="359.6005" viewBox="4.35 -35 222.23000000000002 35.65" height="57.68169999999999" data-palette-color="#222222"><g class="wordmark-text-0" data-fill-palette-color="primary"><path d="M26.55-34.5L30.9-34.5 30.9-1.75Q30.9 0 29.2 0L29.2 0 24.9 0Q24.15 0 23.7-0.35 23.25-0.7 22.95-1.4L22.95-1.4 11.3-25.85Q10.85-26.85 10.25-28.1 9.65-29.35 9.35-30.4L9.35-30.4 8.55-30.4Q8.65-29.3 8.7-28.15 8.75-27 8.75-25.85L8.75-25.85 8.75 0 4.35 0 4.35-32.75Q4.35-34.5 6.1-34.5L6.1-34.5 10.25-34.5Q11-34.5 11.45-34.15 11.9-33.8 12.2-33.1L12.2-33.1 23.5-9.25Q24.05-8.2 24.68-6.88 25.3-5.55 25.85-4.25L25.85-4.25 26.7-4.25Q26.65-5.6 26.6-6.9 26.55-8.2 26.55-9.5L26.55-9.5 26.55-34.5ZM49.45-24.95L49.45-24.95Q53.65-24.95 56.17-23.7 58.7-22.45 59.8-19.63 60.9-16.8 60.9-12.15L60.9-12.15Q60.9-7.5 59.8-4.67 58.7-1.85 56.17-0.6 53.65 0.65 49.45 0.65L49.45 0.65Q45.3 0.65 42.77-0.6 40.25-1.85 39.12-4.67 38-7.5 38-12.15L38-12.15Q38-16.8 39.12-19.63 40.25-22.45 42.77-23.7 45.3-24.95 49.45-24.95ZM49.45-21.35L49.45-21.35Q46.8-21.35 45.27-20.53 43.75-19.7 43.1-17.7 42.45-15.7 42.45-12.15L42.45-12.15Q42.45-8.6 43.1-6.6 43.75-4.6 45.27-3.78 46.8-2.95 49.45-2.95L49.45-2.95Q52.1-2.95 53.65-3.78 55.2-4.6 55.85-6.6 56.5-8.6 56.5-12.15L56.5-12.15Q56.5-15.7 55.85-17.7 55.2-19.7 53.65-20.53 52.1-21.35 49.45-21.35ZM67.55-24.35L70.85-24.35 71.4-19.7 71.8-18.95 71.8 0 67.55 0 67.55-24.35ZM81.7-24.95L82.8-24.95 82.3-20.95 80.9-20.95Q78.75-20.95 76.6-20.08 74.45-19.2 71.35-17.6L71.35-17.6 71-20.25Q73.7-22.45 76.42-23.7 79.15-24.95 81.7-24.95L81.7-24.95ZM89.44-31.55L93.69-31.55 93.69-6.7Q93.69-4.95 94.44-4.2 95.19-3.45 96.99-3.45L96.99-3.45 100.69-3.45 101.19-0.2Q100.39 0 99.34 0.15 98.29 0.3 97.29 0.38 96.29 0.45 95.69 0.45L95.69 0.45Q92.64 0.45 91.04-1.25 89.44-2.95 89.44-6.15L89.44-6.15 89.44-31.55ZM89.84-24.35L101.44-24.35 101.44-21 85.04-21 85.04-24.1 89.84-24.35ZM121.44-24.95L121.44-24.95Q128.04-24.95 128.04-18.25L128.04-18.25 128.04 0 123.74 0 123.74-17.05Q123.74-19.5 122.97-20.43 122.19-21.35 120.29-21.35L120.29-21.35Q118.04-21.35 115.79-20.3 113.54-19.25 110.44-17.25L110.44-17.25 110.24-20.3Q113.09-22.45 115.89-23.7 118.69-24.95 121.44-24.95ZM106.64-35L110.89-35 110.94-25.35Q110.94-23.7 110.82-22.25 110.69-20.8 110.44-19.7L110.44-19.7 110.89-18.95 110.89 0 106.64 0 106.64-35ZM154.89-34.5L159.69-34.5 149.64-20.2Q149.19-19.55 148.76-19.07 148.34-18.6 147.74-18L147.74-18 147.74-17.9Q148.39-17.3 148.94-16.7 149.49-16.1 149.89-15.5L149.89-15.5 160.39 0 155.44 0 143.19-18.05 154.89-34.5ZM136.14-34.5L140.49-34.5 140.49-23.7Q140.49-22.2 140.34-20.85 140.19-19.5 139.89-18.05L139.89-18.05Q140.14-16.65 140.31-15.25 140.49-13.85 140.49-12.55L140.49-12.55 140.49 0 136.14 0 136.14-34.5ZM138.94-19.75L145.59-19.75 145.59-16.2 138.94-16.2 138.94-19.75ZM176.74-24.95L176.74-24.95Q179.44-24.95 181.31-24.23 183.19-23.5 184.14-21.8 185.09-20.1 185.09-17.15L185.09-17.15 185.09 0 181.74 0 181.09-5.3 180.79-5.85 180.79-17.15Q180.79-19.4 179.76-20.38 178.74-21.35 175.84-21.35L175.84-21.35Q173.94-21.35 171.06-21.15 168.19-20.95 165.39-20.7L165.39-20.7 164.99-23.85Q166.69-24.15 168.71-24.4 170.74-24.65 172.84-24.8 174.94-24.95 176.74-24.95ZM170.64-15L183.09-15 183.04-11.8 171.39-11.75Q169.64-11.7 168.94-10.83 168.24-9.95 168.24-8.4L168.24-8.4 168.24-6.85Q168.24-4.95 169.14-4.08 170.04-3.2 172.04-3.2L172.04-3.2Q173.44-3.2 175.21-3.73 176.99-4.25 178.79-5.35 180.59-6.45 182.09-8.15L182.09-8.15 182.09-5Q181.54-4.3 180.51-3.38 179.49-2.45 178.06-1.58 176.64-0.7 174.91-0.13 173.19 0.45 171.19 0.45L171.19 0.45Q169.04 0.45 167.39-0.33 165.74-1.1 164.81-2.63 163.89-4.15 163.89-6.35L163.89-6.35 163.89-9Q163.89-11.85 165.66-13.43 167.44-15 170.64-15L170.64-15ZM192.68-24.35L195.98-24.35 196.53-19.7 196.93-18.95 196.93 0 192.68 0 192.68-24.35ZM206.83-24.95L207.93-24.95 207.43-20.95 206.03-20.95Q203.88-20.95 201.73-20.08 199.58-19.2 196.48-17.6L196.48-17.6 196.13-20.25Q198.83-22.45 201.56-23.7 204.28-24.95 206.83-24.95L206.83-24.95ZM214.58-31.55L218.83-31.55 218.83-6.7Q218.83-4.95 219.58-4.2 220.33-3.45 222.13-3.45L222.13-3.45 225.83-3.45 226.33-0.2Q225.53 0 224.48 0.15 223.43 0.3 222.43 0.38 221.43 0.45 220.83 0.45L220.83 0.45Q217.78 0.45 216.18-1.25 214.58-2.95 214.58-6.15L214.58-6.15 214.58-31.55ZM214.98-24.35L226.58-24.35 226.58-21 210.18-21 210.18-24.1 214.98-24.35Z" fill="#222222" data-fill-palette-color="primary"></path></g></svg></g><g><svg xmlns="http://www.w3.org/2000/svg" data-name="Layer 1" viewBox="1.75 1.499963112414123 96.5 97.00458360424997" x="373.2188" y="0" height="57.68169999999999" width="57.38166015648078" class="icon-dxe-0" data-fill-palette-color="accent" id="dxe-0"><path d="M87.5 31.7H77.21V13.7A12.22 12.22 0 0 0 65 1.5H14A12.22 12.22 0 0 0 1.75 13.71V55A12.22 12.22 0 0 0 14 67.19H20.13V81.19A2.5 2.5 0 0 0 24.4 82.96L40.1 67.19H43.1V73.77A10.76 10.76 0 0 0 53.8 84.52H66.14L79.41 97.77A2.5 2.5 0 0 0 83.68 96V84.52H87.5A10.76 10.76 0 0 0 98.25 73.77V42.45A10.76 10.76 0 0 0 87.5 31.7M39.06 62.19A2.5 2.5 0 0 0 37.29 62.92L25.09 75.11V64.69A2.5 2.5 0 0 0 22.59 62.19H14A7.21 7.21 0 0 1 6.75 55V13.71A7.21 7.21 0 0 1 14 6.5H65A7.21 7.21 0 0 1 72.21 13.71V55A7.21 7.21 0 0 1 65 62.19ZM93.25 73.77A5.75 5.75 0 0 1 87.5 79.52H81.18A2.5 2.5 0 0 0 78.68 82.02V90.02L68.94 80.3A2.5 2.5 0 0 0 67.17 79.57H53.8A5.75 5.75 0 0 1 48 73.77V67.19H65A12.22 12.22 0 0 0 77.21 55V36.7H87.5A5.75 5.75 0 0 1 93.25 42.45Z" fill="#222222" data-fill-palette-color="accent"></path><path d="M53.72 19.4H31.34V18.4A6 6 0 0 0 25.34 12.4H23.38A2.5 2.5 0 0 0 23.38 17.4H25.33A1 1 0 0 1 26.33 18.4V39A7.21 7.21 0 0 0 33.54 46.21H51.85A2.5 2.5 0 0 0 51.85 41.21H33.54A2.21 2.21 0 0 1 31.34 39V36.65H50.75A5.47 5.47 0 0 0 56.22 31.18V21.9A2.5 2.5 0 0 0 53.72 19.4M51.22 31.19A0.47 0.47 0 0 1 50.75 31.66H31.34V24.4H51.22Z" fill="#222222" data-fill-palette-color="accent"></path><circle cx="34.69" cy="52.53" r="2.9" fill="#222222" data-fill-palette-color="accent"></circle><circle cx="48.03" cy="52.53" r="2.9" fill="#222222" data-fill-palette-color="accent"></circle></svg></g></svg></g></svg></g></svg></g></svg></g><g></g></svg></g><defs></defs></svg><rect width="395.52" height="52.982446827180034" fill="none" stroke="none" visibility="hidden"></rect></g></svg></g></svg>